<?xml version="1.0" encoding="UTF-8" standalone="no"?>
<!DOCTYPE svg PUBLIC "-//W3C//DTD SVG 1.1//EN" "http://www.w3.org/Graphics/SVG/1.1/DTD/svg11.dtd">
<svg width="100%" height="100%" viewBox="0 0 256 256" version="1.1" xmlns="http://www.w3.org/2000/svg" xmlns:xlink="http://www.w3.org/1999/xlink" xml:space="preserve" xmlns:serif="http://www.serif.com/" style="fill-rule:evenodd;clip-rule:evenodd;stroke-linejoin:round;stroke-miterlimit:2;">
    <g transform="matrix(1,0,0,1,-952.904,-692.996)">
        <g id="IconBig" transform="matrix(1,0,0,1,952.904,692.996)">
            <rect x="0" y="0" width="256" height="256" style="fill:none;"/>
            <g transform="matrix(2.26483,0,0,2.26483,-310.344,-50.5774)">
                <g transform="matrix(1.65951,0,0,1.65951,-329.437,-1138.3)">
                    <path d="M293.096,728.9C293.096,735.915 295.24,741.225 299.527,744.83C303.814,748.435 308.588,750.237 313.849,750.237C319.11,750.237 323.884,748.484 328.171,744.976C332.458,741.469 334.602,736.11 334.602,728.9C334.602,721.69 332.458,716.283 328.171,712.678C323.884,709.073 319.11,707.27 313.849,707.27C308.588,707.27 303.814,709.073 299.527,712.678C295.24,716.283 293.096,721.69 293.096,728.9Z" style="fill:rgb(255,196,50);fill-rule:nonzero;"/>
                </g>
                <g transform="matrix(0.866025,-0.5,0.404209,0.700111,-867.3,-40.2301)">
                    <circle cx="861.801" cy="791.367" r="37.297" style="fill:rgb(255,168,50);"/>
                </g>
                <g transform="matrix(1,0,0,1,-636.259,-689.449)">
                    <circle cx="838.678" cy="736.779" r="3.499" style="fill:rgb(255,240,209);"/>
                </g>
                <g transform="matrix(1.60644,0,0,1.60644,-1133.55,-1127.14)">
                    <circle cx="838.678" cy="736.779" r="3.499" style="fill:rgb(255,240,209);"/>
                </g>
                <g transform="matrix(1.13713,0,0,1.13713,-737.927,-811.953)">
                    <path d="M813.55,819.699C807.479,819.247 801.748,817.731 796.355,815.152C789.815,812.024 784.34,807.331 779.933,801.075C775.525,794.819 773.321,787.141 773.321,778.04C773.321,768.087 775.525,759.84 779.933,753.299C784.34,746.759 789.815,741.853 796.355,738.583C802.896,735.312 809.935,733.677 817.471,733.677C825.007,733.677 832.045,735.241 838.586,738.37C845.126,741.498 850.601,746.332 855.009,752.873C859.416,759.414 861.62,767.376 861.62,776.761C861.62,781.441 861.104,785.739 860.071,789.653C863.159,794.122 864.967,799.539 864.967,805.375C864.967,820.666 852.553,833.08 837.263,833.08C827.213,833.08 818.405,827.716 813.55,819.699ZM847.463,779.612C847.517,778.684 847.544,777.734 847.544,776.761C847.544,766.239 844.415,758.347 838.159,753.086C831.903,747.825 824.936,745.195 817.257,745.195C809.579,745.195 802.612,747.825 796.355,753.086C790.099,758.347 786.971,766.239 786.971,776.761C786.971,786.998 790.099,794.748 796.355,800.009C800.465,803.465 804.882,805.786 809.604,806.971C809.868,811.61 811.276,815.946 813.55,819.699C814.841,819.796 816.148,819.844 817.471,819.844C825.007,819.844 832.045,818.28 838.586,815.152C845.126,812.024 850.601,807.26 855.009,800.862C857.283,797.561 858.97,793.825 860.071,789.653C856.976,785.173 852.595,781.648 847.463,779.612Z" style="fill:white;"/>
                </g>
                <g transform="matrix(1,0,0,1,-639.252,-692.996)">
                    <path d="M821.948,798.672C821.914,798.071 821.897,797.466 821.897,796.858C821.897,779.471 836.013,765.355 853.4,765.355C857.495,765.355 861.408,766.138 864.999,767.562C864.402,777.903 860.875,785.715 854.419,790.998C847.305,796.819 839.382,799.729 830.651,799.729C827.655,799.729 824.755,799.377 821.948,798.672Z" style="fill:white;"/>
                </g>
            </g>
        </g>
    </g>
</svg>
